<?xml version="1.0" encoding="UTF-8"?>
<svg id="Layer_1" data-name="Layer 1" xmlns="http://www.w3.org/2000/svg" xmlns:xlink="http://www.w3.org/1999/xlink" viewBox="0 0 469.38 475.44">
  <defs>
    <filter id="drop-shadow-1" filterUnits="userSpaceOnUse">
      <feOffset dx="7" dy="7"/>
      <feGaussianBlur result="blur" stdDeviation="5"/>
      <feFlood flood-color="#000" flood-opacity=".22"/>
      <feComposite in2="blur" operator="in"/>
      <feComposite in="SourceGraphic"/>
    </filter>
    <filter id="drop-shadow-3" filterUnits="userSpaceOnUse">
      <feOffset dx="7" dy="7"/>
      <feGaussianBlur result="blur-2" stdDeviation="5"/>
      <feFlood flood-color="#000" flood-opacity=".22"/>
      <feComposite in2="blur-2" operator="in"/>
      <feComposite in="SourceGraphic"/>
    </filter>
  </defs>
  <image width="512" height="512" transform="translate(92.78 213.68) rotate(-40.66) scale(.44)" xlink:href="C:\Users\youss\Downloads\right-arrow.png" style="filter: url(#drop-shadow-1);"/>
  <g style="filter: url(#drop-shadow-3);">
    <path d="m228.57.13C107.18,4.2,8.5,102.34,3.82,223.71c-1.44,37.41,5.99,72.97,20.37,104.76,2.22,4.91,2.77,10.41,1.52,15.65L.56,449.99c-1.71,7.15.55,14.76,5.92,19.81,3.89,3.67,9.02,5.64,14.23,5.64,1.97,0,3.95-.28,5.9-.84l99.32-29.67c5.58-1.67,11.55-1.25,16.87,1.1,31.58,13.95,66.84,21.07,103.87,19.49,121.13-5.17,218.77-103.97,222.6-225.15C473.51,105.9,363.08-4.37,228.57.13Zm18.96,416.15c-29.64,1.74-57.91-3.59-83.23-14.47-5.68-2.43-11.21-5.14-16.58-8.12-5.65-3.13-12.35-3.76-18.54-1.91l-11.87,3.55-21.73,6.48-14.46,4.32-7.27,2.18-11.14,3.32c-.77.24-1.49-.45-1.3-1.22l2.69-11.32,1.87-7.86,3.38-14.21,5.25-22.07,3.69-15.54c1.42-6,.46-12.28-2.54-17.67-3.35-6.03-6.37-12.27-9.03-18.71-8.98-21.64-13.93-45.34-13.93-70.17,0-101.32,82.42-183.74,183.74-183.74s187.62,86.36,183.6,190.95c-3.61,93.96-78.73,170.71-172.59,176.21Z" style="fill: #fff; stroke-width: 0px;"/>
  </g>
</svg>